<svg xmlns="http://www.w3.org/2000/svg" width="30" height="30" viewBox="0 0 30 30">
    <g fill="none" fill-rule="evenodd">
        <g>
            <g>
                <g>
                    <g>
                        <g>
                            <path d="M0 0H30V30H0z" transform="translate(-212 -7416) translate(1 6655) translate(32 737) translate(104 24) translate(75)"/>
                            <path fill="#FFF" d="M23.84 3.75c1.267 0 2.307.98 2.403 2.222l.007.189v17.678c0 1.268-.98 2.308-2.222 2.404l-.189.007H6.161c-1.268 0-2.308-.98-2.404-2.222l-.007-.189V6.161c0-1.268.98-2.308 2.222-2.404l.189-.007h17.678zm-8.88 2.5c-4.841 0-8.75 3.91-8.75 8.75s3.909 8.75 8.75 8.75c5.049 0 8.467-3.553 8.467-8.545 0-.466-.036-.835-.092-1.193l-.045-.268h-8.33v3.01h4.967c-.204 1.287-1.503 3.771-4.967 3.771-2.985 0-5.423-2.473-5.423-5.525 0-4.83 5.588-7.095 8.74-4.326l.169.156 2.381-2.29c-1.528-1.426-3.51-2.29-5.867-2.29z" transform="translate(-212 -7416) translate(1 6655) translate(32 737) translate(104 24) translate(75)"/>
                        </g>
                    </g>
                </g>
            </g>
        </g>
    </g>
</svg>
