<svg xmlns="http://www.w3.org/2000/svg" width="30" height="30" viewBox="0 0 30 30">
    <g fill="none" fill-rule="evenodd">
        <g>
            <g>
                <g>
                    <g>
                        <path d="M0 0H30V30H0z" transform="translate(-137 -7416) translate(1 6655) translate(32 737) translate(104 24)"/>
                        <path fill="#FFF" d="M23.75 3.75c1.38 0 2.5 1.12 2.5 2.5v17.5c0 1.38-1.12 2.5-2.5 2.5h-4.195v-8.9H22.6l.437-3.395h-3.48v-2.17c0-.984.27-1.652 1.682-1.652h1.798V7.1l-.438-.045-.426-.032c-.475-.031-1.09-.059-1.758-.059-2.591 0-4.37 1.582-4.37 4.49v2.506h-3.053v3.395h3.059l-.001 8.895H6.25c-1.38 0-2.5-1.12-2.5-2.5V6.25c0-1.38 1.12-2.5 2.5-2.5h17.5z" transform="translate(-137 -7416) translate(1 6655) translate(32 737) translate(104 24)"/>
                    </g>
                </g>
            </g>
        </g>
    </g>
</svg>
