<svg xmlns="http://www.w3.org/2000/svg" width="30" height="30" viewBox="0 0 30 30">
    <g fill="none" fill-rule="evenodd">
        <g>
            <g>
                <g>
                    <g>
                        <g>
                            <path d="M0 0H30V30H0z" transform="translate(-174 -7416) translate(1 6655) translate(32 737) translate(104 24) translate(37)"/>
                            <path fill="#FFF" d="M23.84 3.75H6.16c-1.33 0-2.41 1.08-2.41 2.41v17.68c0 1.33 1.08 2.41 2.41 2.41h17.68c1.33 0 2.41-1.08 2.41-2.41V6.16c0-1.33-1.08-2.41-2.41-2.41zM7.214 23.036V12.298h3.34v10.738h-3.34zM6.95 8.898c0-1.065.864-1.934 1.934-1.934 1.065 0 1.933.87 1.933 1.934 0 1.07-.863 1.933-1.933 1.933s-1.934-.868-1.934-1.933zm12.767 14.138v-5.224c0-1.245-.025-2.847-1.733-2.847-1.737 0-2.004 1.356-2.004 2.757v5.314h-3.334V12.298h3.199v1.467h.045c.447-.844 1.537-1.733 3.159-1.733 3.375 0 4.003 2.225 4.003 5.118v5.886h-3.335z" transform="translate(-174 -7416) translate(1 6655) translate(32 737) translate(104 24) translate(37)"/>
                        </g>
                    </g>
                </g>
            </g>
        </g>
    </g>
</svg>
