<svg xmlns="http://www.w3.org/2000/svg" viewBox="0 0 104.9853 95.0434"><defs><style>.cls-1{fill-rule:evenodd;}</style></defs><g id="Layer_2" data-name="Layer 2"><g id="Layer_1-2" data-name="Layer 1"><path d="M104.9853,67.86831c0-2.59505-1.352-15.384-27.5617-16.56589-9.41442-8.695-16.94145-12.51352-24.97439-12.71861-8.49613-.2165-12.441-.29934-16.92194.0081-7.93684.54419-13.18769,4.57153-19.26771,9.23436-1.44885,1.11122-2.93894,2.2541-4.55164,3.42018H.12262L.0302,55.1103c-.144,6.02517.20987,17.2095,1.42713,22.08074.5615,2.2453,2.24885,8.89548,10.2383,9.365a13.44094,13.44094,0,0,0,24.97236.04349c4.5614-.00041,9.65609.01031,14.76831.02177,4.9677.011,9.94314.02209,14.43587.02209.24752,0,.48616-.00018.73064-.00023a13.44338,13.44338,0,0,0,24.94-.04174H104.9853ZM24.18977,87.12571a5.53878,5.53878,0,1,1,5.53878-5.53841A5.54485,5.54485,0,0,1,24.18977,87.12571Zm54.87525,0a5.53878,5.53878,0,1,1,5.53914-5.53841A5.54509,5.54509,0,0,1,79.065,87.12571Zm18.00259-8.442H92.1977a13.4487,13.4487,0,0,0-26.27587.04226c-4.50138.00041-9.48464-.01087-14.46786-.02237-4.87441-.01091-9.7352-.02168-14.13248-.02214a13.44455,13.44455,0,0,0-26.2269-.1418c-.86149-.27012-1.4-1.0455-1.95595-3.26839-.7132-2.855-1.16239-10.01273-1.21689-16.10712h6.31052l1.02616-.72387c2.13959-1.50887,4.0104-2.94336,5.81971-4.33146,5.478-4.20112,9.43614-7.2369,14.99112-7.61762,4.12453-.28351,7.94015-.2025,16.17818.0081,6.21184.15833,12.44061,3.62085,20.82776,11.57794l1.10091,1.0442,1.517.04124c15.68222.42343,21.37454,5.43826,21.37454,8.70564Z"/><path d="M64.5868,55.46745h-31.37l-5.172-5.17242L22.446,55.89382l6.33151,6.33151a3.95629,3.95629,0,0,0,2.79939,1.15982h33.7695a3.96273,3.96273,0,0,0,1.46542-.28131l4.221-1.68192L68.102,54.06683Z"/><path class="cls-1" d="M79.7633,11.03249l.46233.4549-3.73029,3.73027a33.94508,33.94508,0,0,0-47.60525-.39372l-.40015.3937-3.73027-3.73027A39.22052,39.22052,0,0,1,79.7633,11.03249Zm-8.14251,8.41076.32712.32183-3.73026,3.73029a22.21616,22.21616,0,0,0-31.1144-.269l-.30514.29949-3.73028-3.7303A27.49344,27.49344,0,0,1,71.62079,19.44325Zm-8.244,8.31293.29347.28662-3.7303,3.73027c-4.2955-4.29551-10.99086-4.52874-15.1073-.666l-.23021.223-3.73028-3.73028C46.97138,21.5006,56.96291,21.63813,63.37675,27.75618Z"/></g></g></svg>