<svg xmlns="http://www.w3.org/2000/svg" viewBox="0 0 104.9853 56.65301"><g id="Layer_2" data-name="Layer 2"><g id="Layer_1-2" data-name="Layer 1"><path d="M104.9853,29.47791c0-2.59505-1.352-15.384-27.5617-16.56589C68.00918,4.21707,60.48215.3985,52.44921.19342c-8.49613-.2165-12.441-.29935-16.92194.0081C27.59043.74571,22.33958,4.773,16.25956,9.43588c-1.44885,1.11122-2.93894,2.2541-4.55164,3.42018H.12262L.0302,16.71991c-.144,6.02516.20987,17.2095,1.42713,22.08073.5615,2.24531,2.24885,8.89549,10.2383,9.365a13.44094,13.44094,0,0,0,24.97236.04349c4.5614-.00042,9.65609.01031,14.76831.02177,4.9677.011,9.94314.02209,14.43587.02209.24752,0,.48616-.00018.73064-.00023a13.44338,13.44338,0,0,0,24.94-.04174H104.9853ZM24.18977,48.73532a5.53878,5.53878,0,1,1,5.53878-5.53841A5.54485,5.54485,0,0,1,24.18977,48.73532Zm54.87525,0a5.53878,5.53878,0,1,1,5.53914-5.53841A5.54509,5.54509,0,0,1,79.065,48.73532Zm18.00259-8.442H92.1977a13.4487,13.4487,0,0,0-26.27587.04225c-4.50138.00042-9.48464-.01086-14.46786-.02237-4.87441-.0109-9.7352-.02167-14.13248-.02213a13.44455,13.44455,0,0,0-26.2269-.14181c-.86149-.27011-1.4-1.04549-1.95595-3.26838-.7132-2.855-1.16239-10.01273-1.21689-16.10712h6.31052l1.02616-.72387c2.13959-1.50887,4.0104-2.94336,5.81971-4.33146,5.478-4.20112,9.43614-7.2369,14.99112-7.61762,4.12453-.28351,7.94015-.20251,16.17818.0081,6.21184.15833,12.44061,3.62084,20.82776,11.57794l1.10091,1.0442,1.517.04124c15.68222.42342,21.37454,5.43826,21.37454,8.70563Z"/><path d="M64.5868,17.07706h-31.37l-5.172-5.17242L22.446,17.50343l6.33151,6.33151a3.95628,3.95628,0,0,0,2.79939,1.15981h33.7695a3.96292,3.96292,0,0,0,1.46542-.2813l4.221-1.68192L68.102,15.67644Z"/></g></g></svg>