<svg xmlns="http://www.w3.org/2000/svg" viewBox="0 0 105.7211 84.18227"><defs><style>.cls-1{fill-rule:evenodd;}</style></defs><g id="Layer_2" data-name="Layer 2"><g id="Layer_1-2" data-name="Layer 1"><path d="M3.67123,30.558l6.9146.40712.05353.29931A3.77985,3.77985,0,0,0,14.36,34.38416h.23673a3.83083,3.83083,0,0,0,3.62637-2.67642l.08972-.28876L36.805,32.50689l.08444.24427C38.70979,38.02033,44.354,43.337,52.86055,43.337c8.50614,0,14.15038-5.31667,15.97073-10.58584l.08444-.24427,18.47375-1.0864.09348.28121a3.89992,3.89992,0,0,0,7.52717-.44255l.05956-.29026,6.9768-.41013a3.90352,3.90352,0,0,0,3.67462-3.894l-.02563-14.608h-10.573V8.62563L102.002,8.6l-.02563-4.76178H95.13225l-.03769-.34379a3.9135,3.9135,0,0,0-7.782,0l-.03769.34379-6.869.02563.02488,4.76178h6.85391v3.43111H70.92907l-.09764-.24126a9.69138,9.69138,0,0,0-9.4557-6.14523H44.345a9.69139,9.69139,0,0,0-9.4557,6.14523l-.09763.24126H18.41042V8.62563L25.29072,8.6l-.02563-4.76178H18.41984l-.03769-.34379a3.91329,3.91329,0,0,0-7.78162,0l-.03769.34379-6.87126.02563.02564,4.76178h6.855v3.43111L0,12.08237V26.66475A3.90126,3.90126,0,0,0,3.67123,30.558ZM7.80046,19.85758H37.96039a3.92108,3.92108,0,0,0,3.89967-3.86989A2.23091,2.23091,0,0,1,44.345,13.47034H61.37573a2.2111,2.2111,0,0,1,2.48418,2.48644,3.90372,3.90372,0,0,0,3.89966,3.9008H97.92026v3.13028L65.40281,24.90132a3.9761,3.9761,0,0,0-3.537,3.10541c-1.38985,3.81032-3.23018,7.53018-9.00523,7.53018-5.57714,0-7.45781-3.59847-8.90647-7.2844l-.13344-.33776c-.4271-1.07585-1.1422-2.87622-3.5016-3.01343L7.80046,22.98786Z"/><polygon points="44.956 17.242 44.545 17.242 44.545 17.654 44.545 22.37 44.545 22.781 44.956 22.781 60.764 22.781 61.175 22.781 61.175 22.37 61.175 17.654 61.175 17.242 60.764 17.242 44.956 17.242"/><path class="cls-1" d="M23.79016,72.42169l-.49285-.48492,3.97647-3.97645a36.18533,36.18533,0,0,0,50.747.41969l.42655-.41969,3.97646,3.97645A41.8089,41.8089,0,0,1,23.79016,72.42169ZM32.47,63.45585l-.34872-.34307,3.97645-3.97647a23.68232,23.68232,0,0,0,33.16781.28677l.32528-.31925,3.97646,3.97648A29.30787,29.30787,0,0,1,32.47,63.45585Zm8.7881-8.86155-.31283-.30553,3.97647-3.97646c4.579,4.579,11.71621,4.82761,16.10432.70992l.24541-.23774L65.248,54.761C58.7462,61.26271,48.09527,61.11611,41.25814,54.5943Z"/></g></g></svg>