<svg xmlns="http://www.w3.org/2000/svg" viewBox="0 0 87.30082 80.23698"><g id="Layer_2" data-name="Layer 2"><g id="Layer_1-2" data-name="Layer 1"><path d="M87.30082,65.60375V0H0V65.60375H33.02371L31.464,72.49491H30.10226c-.10728,0-.20822.02306-.31334.03167H26.26556v3.49648c-.01022.11423-.03452.22437-.03452.34123s.0243.227.03452.34122V80.2037h3.54021c.0996.00773.195.03.29649.03h4.4022c.0185.00028.03664.00332.05518.00332.01326,0,.02573-.00318.039-.00332H52.647c.01325.00014.02572.00332.039.00332.01951,0,.03806-.003.05753-.00332h4.40133c.10153,0,.19689-.02223.29649-.03h3.61122V72.52658H57.45814c-.10512-.00861-.206-.03167-.31333-.03167h-1.3632L54.2228,65.60375Zm-41.01716,0,1.55848,6.89116H39.40285l1.55973-6.89116ZM79.76016,7.54066v41.969a8.99983,8.99983,0,0,0-1.12447-.07226H7.54066V7.54066ZM7.54066,54.3038h71.095a9.00183,9.00183,0,0,0,1.12447-.07225v3.83154H7.54066Z"/><path d="M26.3901,35.331h4.94341L32.363,37.855h5.0222L31.14646,23.09475l-.09794-.23013H26.773L20.43711,37.855h4.9434Zm1.4507-3.80347,1.03757-2.61383,1.02433,2.61383Z"/><path d="M44.19682,37.05933a4.39867,4.39867,0,0,0,2.9544,1.03794c2.58548,0,5.20335-2.09246,5.20335-6.13194,0-3.95958-2.62745-6.03142-5.22323-6.03142a4.128,4.128,0,0,0-2.93452,1.11784V22.35983H39.60614V37.855h4.59068Zm1.76292-2.92679a1.95787,1.95787,0,0,1-1.84393-2.147,1.86718,1.86718,0,1,1,3.70848,0v.04014A1.9308,1.9308,0,0,1,45.95974,34.13254Z"/><path d="M60.92029,38.11753a5.82489,5.82489,0,0,0,5.17832-2.67016l.20471-.30229-3.14145-2.27546-.22607.26363a2.22853,2.22853,0,0,1-1.81374.99929,1.90121,1.90121,0,0,1-1.80416-2.147,1.90015,1.90015,0,0,1,1.76366-2.04643,1.98386,1.98386,0,0,1,1.73421.99486l.22386.31,3.19153-2.37524-.18631-.29529a5.51724,5.51724,0,0,0-4.98317-2.61935,6.019,6.019,0,0,0-6.23356,6.07156v.0405A6.00725,6.00725,0,0,0,60.92029,38.11753Z"/></g></g></svg>