<svg xmlns="http://www.w3.org/2000/svg" viewBox="0 0 98.49158 88.52155"><g id="Layer_2" data-name="Layer 2"><g id="Layer_1-2" data-name="Layer 1"><path d="M54.30078,12.192,42.66223,23.83051a14.23467,14.23467,0,0,0-12.8175-8.16083h-.01947a14.15992,14.15992,0,0,0-5.98908,26.98681L10.10992,56.38275l6.02607,6.026,6.026-6.026v32.1388H86.43951V56.38275l6.02607,6.026,6.026-6.026ZM27.9917,38.501a8.85731,8.85731,0,0,1,1.841-17.51874h.01251A8.90569,8.90569,0,0,1,38.49646,27.952l.00793.03631ZM58.31409,80.48279H50.27942l.004-20.0827h8.03473Zm20.09076.004-12.0561-.004.004-28.11737H42.24872l-.004,28.11737-12.048.004V48.34808L54.30078,24.244,78.40485,48.34808Z"/><polygon points="19.325 44.082 17.436 42.154 15.525 40.214 6.831 48.959 8.566 50.73 10.615 52.78 19.325 44.082"/><polygon points="12.349 29.807 12.38 27.084 0.049 27.068 0.013 29.547 0 32.445 12.309 32.506 12.349 29.807"/><polygon points="17.502 17.445 19.443 15.535 10.705 6.835 8.932 8.569 6.881 10.616 15.572 19.332 17.502 17.445"/><polygon points="32.574 12.315 32.598 0.006 29.7 0 27.221 0.019 27.152 12.349 29.875 12.337 32.574 12.315"/><polygon points="44.151 19.386 52.861 10.687 50.813 8.636 49.044 6.899 40.289 15.581 42.226 17.495 44.151 19.386"/></g></g></svg>