<?xml version="1.0" encoding="UTF-8"?>
<svg width="104px" height="61px" viewBox="0 0 104 61" version="1.1" xmlns="http://www.w3.org/2000/svg" xmlns:xlink="http://www.w3.org/1999/xlink">
    <title>Color</title>
    <g id="Symbols" stroke="none" stroke-width="1" fill-rule="evenodd">
        <g id="Icon-block" transform="translate(-1010.000000, -141.000000)">
            <g id="Group-9">
                <path d="M1099.07565,171.16474 L1105.70074,189.17812 C1107.70449,188.262228 1110.06506,187.596349 1113.07692,187.596349 L1113.07692,187.596349 L1113.07692,194.180874 C1109.66332,194.180874 1107.64959,195.477976 1105.09937,197.121632 C1102.13991,199.030155 1098.7837,201.193642 1093.2316,201.193642 C1087.68199,201.193642 1084.32578,199.030155 1081.36383,197.121632 C1078.8136,195.477976 1076.79987,194.180874 1073.38627,194.180874 C1069.97266,194.180874 1067.95894,195.477976 1065.41121,197.121632 C1062.44926,199.030155 1059.09304,201.193642 1053.54344,201.193642 C1047.99134,201.193642 1044.63512,199.030155 1041.67567,197.121632 C1039.12544,195.477976 1037.11172,194.180874 1033.70061,194.180874 C1030.2845,194.180874 1028.27078,195.477976 1025.72055,197.121632 C1022.7611,199.030155 1019.40488,201.193642 1013.85278,201.193642 L1013.85278,201.193642 L1013.85278,194.606641 C1017.43857,194.606641 1019.49721,193.279834 1022.10483,191.601523 C1022.47663,191.358935 1022.85592,191.116347 1023.24519,190.873759 L1023.24519,190.873759 L1010,171.16474 L1099.07565,171.16474 Z M1094.43185,177.749265 L1022.40177,177.749265 L1029.36622,188.111229 C1030.65381,187.789429 1032.08114,187.596349 1033.70061,187.596349 C1039.07803,187.596349 1042.37935,189.722705 1045.29139,191.601523 C1047.89901,193.279834 1049.95765,194.606641 1053.54344,194.606641 C1057.12673,194.606641 1059.18537,193.279834 1061.79298,191.601523 C1064.70753,189.722705 1068.00635,187.596349 1073.38627,187.596349 C1078.76869,187.596349 1082.06751,189.722705 1084.98205,191.601523 C1087.58717,193.279834 1089.64831,194.606641 1093.2316,194.606641 C1096.06379,194.606641 1097.94277,193.777387 1099.89412,192.601578 L1099.89412,192.601578 L1094.43185,177.749265 Z M1092.30769,141.135838 L1092.30769,161.925078 L1032.30769,161.925078 L1036.11292,155.296841 L1068.22708,155.296841 L1077.71012,141.135838 L1092.30769,141.135838 Z M1085.64854,147.764075 L1081.27502,147.764075 L1076.23059,155.296841 L1085.64854,155.296841 L1085.64854,147.764075 Z" id="Color"></path>
            </g>
        </g>
    </g>
</svg>